<?xml version="1.0" encoding="UTF-8"?>
<svg width="40px" height="40px" viewBox="0 0 40 40" version="1.1" xmlns="http://www.w3.org/2000/svg" xmlns:xlink="http://www.w3.org/1999/xlink">
    <title>logo</title>
    <g id="Page-1" stroke="none" stroke-width="1" fill="none" fill-rule="evenodd">
        <g id="logo">
            <g id="Oval">
                <g id="path-1-link" fill="#000000" fill-rule="nonzero">
                    <circle id="path-1" cx="20" cy="20" r="20"></circle>
                </g>
                <g id="path-1-link" fill="#FFFFFF">
                    <circle id="path-1" cx="20" cy="20" r="20"></circle>
                </g>
            </g>
            <polygon id="Path" fill="#FF5C7A" fill-rule="nonzero" points="26.1 28 26.2 27.7 25.9 27.8 25.7 27.6 25.7 28 25.5 28.2 25.8 28.3 25.9 28.7 26 28.4 26.3 28.4"></polygon>
            <polygon id="Path" fill="#FF5C7A" fill-rule="nonzero" points="27.3 29 27 29.1 26.8 28.9 26.8 29.3 26.6 29.5 26.9 29.6 27 30 27.1 29.7 27.4 29.7 27.2 29.4"></polygon>
            <path d="M32.2,32 C32,31.1 31,30.5 30.8,30.4 C30.8,30.4 30.7,30.4 30.7,30.4 C26.2,26.9 25.7,20.7 25.7,20.7 C25.6,20.6 25.5,20.5 25.4,20.5 C24.9,20.2 24.5,20.5 24.5,20.5 C23.6,20.9 22.3,20.4 21.2,19.7 C20.2,19.1 19.5,18.5 19.5,18.5 C19.5,18.5 19.5,18.5 19.5,18.5 C19,18.2 18.8,18.9 18.8,18.9 C18.1,19.8 16.4,21.6 16.4,21.6 C15.9,21.9 15.5,22.4 15.5,22.4 C15.4,22.5 15.2,22.8 15.1,23 L15.1,23 C15,23.1 13.7,25.2 15,26.3 L15,26.3 C18.1,28.1 18.1,28.1 18.1,28.1 C18.1,28.1 18.1,28.1 18.1,28.1 C18.4,28.3 18.7,28.4 19,28.4 C19.1,28.4 19.2,28.5 19.3,28.5 C20.2,28.8 20.9,29.2 21.5,29.6 L21.5,29.6 C21.5,29.6 22.8,30.5 23.2,30.7 C23.4,30.8 26.9,33.1 28.3,33.4 C28.5,33.4 30,33.8 31,33.2 C31.3,33 31.6,32.7 31.8,32.4 C32.2,32.4 32.2,32.2 32.2,32 Z M17,24 L16.8,23.7 L16.5,23.7 L16.8,23.3 L16.8,22.9 L17.1,23 L17.4,22.7 L17.3,23.1 L17.5,23.3 L17.1,23.5 L17,24 Z M31.4,32.4 C31.3,32.4 31,32.4 30.9,32.4 C30.7,32.4 30.6,32.4 30.4,32.3 C30.2,32.3 30,32.2 29.8,32.1 C29.7,32.1 29.5,32 29.4,32 C29.2,31.9 29.1,31.9 28.9,31.8 C28.2,31.4 27.6,30.9 26.9,30.4 C26.2,29.9 25.4,29.3 24.6,28.8 C24.2,28.6 23.8,28.3 23.4,28.1 C22.3,27.5 21.2,26.9 20.2,26.5 L20.2,26.5 L20.2,26.5 C20.2,26.5 20,26.4 19.7,26.3 C17.9,22.9 19.6,19.6 19.6,19.5 C19.6,19.5 19.6,19.4 19.6,19.4 C19.9,19.6 20.4,19.9 20.9,20.3 C22.5,21.2 23.8,21.5 24.7,21.1 L24.7,21.1 L24.7,21.1 C24.7,21.1 24.9,21 25,21.1 C25,21.4 25.1,21.9 25.2,22.5 C24.9,22.6 24,22.8 23.1,22.4 C23.1,22.2 22.9,22 22.7,21.9 C22.3,21.7 21.9,21.8 21.7,22.2 C21.5,22.6 21.6,23 22,23.2 C22.3,23.4 22.8,23.3 23,23 C24.1,23.4 25,23.2 25.4,23.1 C25.5,23.5 25.6,23.9 25.8,24.4 C25.4,24.6 24.5,24.9 23.4,24.6 C23.4,24.4 23.2,24.1 23,24 C22.6,23.8 22.2,23.9 22,24.3 C21.8,24.7 21.9,25.1 22.3,25.3 C22.6,25.5 23,25.4 23.2,25.2 C24.4,25.5 25.5,25.2 26,25 C26,25 26.5,26.1 26.5,26.2 C26.7,26.6 26.9,27 27.1,27.4 C27.3,27.8 27.6,28.3 27.9,28.7 C28.2,29.1 28.5,29.5 28.9,29.9 C29.3,30.3 29.7,30.6 30.1,31 C30.2,31.1 30.2,31.1 30.3,31.1 C30.3,31.1 30.3,31.1 30.4,31.1 C30.5,31.2 30.7,31.3 30.8,31.4 C31,31.6 31.2,31.8 31.3,32 C31.3,32.1 31.4,32.1 31.4,32.2 C31.4,32.3 31.4,32.4 31.4,32.5 C31.5,32.3 31.4,32.4 31.4,32.4 L31.4,32.4 Z" id="Shape" fill="#FF5C7A" fill-rule="nonzero"></path>
            <path d="M19.3,18.4 C19.2,18.4 19.2,18.3 19.1,18.3 C18.2,17.7 16.6,14.6 16.2,14.1 C15.3,13 10.8,10.6 9.9,7 C9.7,7.4 9.6,7.7 9.5,8.1 C9.4,8.6 9.3,9.1 9.3,9.6 C9.3,9.9 9.3,10.1 9.3,10.3 C9.6,11 10.1,12 10.4,12.4 C10.3,12.4 8.2,10.9 8.1,10.8 C8.1,10.8 8.1,10.8 8.1,10.8 C8.2,11.1 8.1,12.3 8.9,13.6 C9.4,14.2 10,14.7 10.7,15.1 C10.7,15.1 9.4,14.4 8.6,14 C8.6,14 8,13.7 8,13.7 L8,13.7 L8,13.7 C8,14 8.7,15.7 8.7,15.8 C8.9,16 9.1,16.1 9.3,16.2 C10.1,16.8 11.5,17.1 11.7,17.2 C11.3,17.2 10.5,17.3 10.1,17.3 C10.2,17.4 10.2,17.4 10.3,17.5 C10.6,17.8 11,18.1 11.3,18.3 C11.6,18.5 11.9,18.7 12.1,18.8 C12.2,18.8 12.2,18.8 12.3,18.8 C12.6,18.8 12.9,18.8 13.2,18.8 C13.8,18.7 14.3,18.6 14.8,18.4 C15.7,18.1 16.7,18.3 17.1,19.3 C17.3,19.9 17.3,20.4 17,20.8 C17.5,20.6 17.9,20.3 18.2,19.8 C18.8,19.5 19.1,19 19.3,18.4" id="Path" fill="#FF5C7A" fill-rule="nonzero"></path>
        </g>
    </g>
</svg>