<?xml version="1.0" encoding="UTF-8"?>
<svg xmlns="http://www.w3.org/2000/svg" xmlns:xlink="http://www.w3.org/1999/xlink" width="81pt" height="80pt" viewBox="0 0 810 809.999993" version="1.2">
<defs>
<clipPath id="clip1">
  <path d="M 491 434 L 508 434 L 508 454 L 491 454 Z M 491 434 "/>
</clipPath>
<clipPath id="clip2">
  <path d="M 368.914062 151.628906 L 724.027344 303.554688 L 572.101562 658.671875 L 216.984375 506.742188 Z M 368.914062 151.628906 "/>
</clipPath>
<clipPath id="clip3">
  <path d="M 368.914062 151.628906 L 724.027344 303.554688 L 572.101562 658.671875 L 216.984375 506.742188 Z M 368.914062 151.628906 "/>
</clipPath>
<clipPath id="clip4">
  <path d="M 517 458 L 534 458 L 534 479 L 517 479 Z M 517 458 "/>
</clipPath>
<clipPath id="clip5">
  <path d="M 368.914062 151.628906 L 724.027344 303.554688 L 572.101562 658.671875 L 216.984375 506.742188 Z M 368.914062 151.628906 "/>
</clipPath>
<clipPath id="clip6">
  <path d="M 368.914062 151.628906 L 724.027344 303.554688 L 572.101562 658.671875 L 216.984375 506.742188 Z M 368.914062 151.628906 "/>
</clipPath>
<clipPath id="clip7">
  <path d="M 267 269 L 634 269 L 634 549 L 267 549 Z M 267 269 "/>
</clipPath>
<clipPath id="clip8">
  <path d="M 368.914062 151.628906 L 724.027344 303.554688 L 572.101562 658.671875 L 216.984375 506.742188 Z M 368.914062 151.628906 "/>
</clipPath>
<clipPath id="clip9">
  <path d="M 368.914062 151.628906 L 724.027344 303.554688 L 572.101562 658.671875 L 216.984375 506.742188 Z M 368.914062 151.628906 "/>
</clipPath>
<clipPath id="clip10">
  <path d="M 127 66 L 148 66 L 148 145 L 127 145 Z M 127 66 "/>
</clipPath>
<clipPath id="clip11">
  <path d="M 113.640625 -50.863281 L 484.371094 94.613281 L 338.894531 465.34375 L -31.835938 319.867188 Z M 113.640625 -50.863281 "/>
</clipPath>
<clipPath id="clip12">
  <path d="M 113.640625 -50.863281 L 484.371094 94.613281 L 338.894531 465.34375 L -31.835938 319.867188 Z M 113.640625 -50.863281 "/>
</clipPath>
<clipPath id="clip13">
  <path d="M 136.320312 65.695312 L 158.117188 74.25 L 130.0625 145.742188 L 108.265625 137.191406 Z M 136.320312 65.695312 "/>
</clipPath>
<clipPath id="clip14">
  <path d="M 136.320312 65.695312 L 158.117188 74.25 L 130.0625 145.742188 L 108.265625 137.191406 Z M 136.320312 65.695312 "/>
</clipPath>
<clipPath id="clip15">
  <path d="M 136.320312 65.695312 L 158.117188 74.25 L 130.0625 145.742188 L 108.265625 137.191406 Z M 136.320312 65.695312 "/>
</clipPath>
<clipPath id="clip16">
  <path d="M 129.644531 144.625 L 129.585938 144.53125 C 129.285156 139.601562 128.574219 134.714844 127.941406 129.800781 C 126.683594 119.988281 127.644531 109.742188 128.105469 99.878906 C 128.496094 91.640625 130.101562 84.496094 132.628906 77.074219 C 132.628906 77.085938 132.632812 77.085938 132.640625 77.089844 C 132.914062 77.195312 136.710938 66.675781 136.710938 66.675781 C 136.710938 66.675781 139.839844 82.078125 147.902344 98.089844 L 129.644531 144.625 "/>
</clipPath>
<clipPath id="clip17">
  <path d="M 136.320312 65.695312 L 158.117188 74.25 L 130.0625 145.742188 L 108.265625 137.191406 Z M 136.320312 65.695312 "/>
</clipPath>
<clipPath id="clip18">
  <path d="M 129.644531 144.625 L 129.585938 144.53125 C 129.285156 139.601562 128.574219 134.714844 127.941406 129.800781 C 126.683594 119.988281 127.644531 109.742188 128.105469 99.878906 C 128.496094 91.640625 130.101562 84.496094 132.628906 77.074219 C 132.628906 77.085938 132.632812 77.085938 132.640625 77.089844 C 132.914062 77.195312 136.710938 66.675781 136.710938 66.675781 C 136.710938 66.675781 139.839844 82.078125 147.902344 98.089844 L 129.644531 144.625 "/>
</clipPath>
<clipPath id="clip19">
  <path d="M 133.375 65.546875 L 157.421875 73.703125 L 132.976562 145.761719 L 108.929688 137.601562 Z M 133.375 65.546875 "/>
</clipPath>
<linearGradient id="linear0" gradientUnits="userSpaceOnUse" x1="-0.219964" y1="0" x2="0.555971" y2="0" gradientTransform="matrix(-33.382172,98.412085,98.412085,33.382172,140.070635,88.155109)">
<stop offset="0" style="stop-color:rgb(74.499512%,55.299377%,11.399841%);stop-opacity:1;"/>
<stop offset="0.25" style="stop-color:rgb(74.499512%,55.299377%,11.399841%);stop-opacity:1;"/>
<stop offset="0.28125" style="stop-color:rgb(74.499512%,55.299377%,11.419678%);stop-opacity:1;"/>
<stop offset="0.289063" style="stop-color:rgb(74.562073%,55.299377%,11.619568%);stop-opacity:1;"/>
<stop offset="0.296875" style="stop-color:rgb(74.761963%,55.299377%,11.886597%);stop-opacity:1;"/>
<stop offset="0.304688" style="stop-color:rgb(74.899292%,55.410767%,12.086487%);stop-opacity:1;"/>
<stop offset="0.3125" style="stop-color:rgb(74.899292%,55.610657%,12.348938%);stop-opacity:1;"/>
<stop offset="0.316406" style="stop-color:rgb(75.099182%,55.857849%,12.69989%);stop-opacity:1;"/>
<stop offset="0.320313" style="stop-color:rgb(75.299072%,56.018066%,12.89978%);stop-opacity:1;"/>
<stop offset="0.324219" style="stop-color:rgb(75.299072%,56.057739%,13.09967%);stop-opacity:1;"/>
<stop offset="0.328125" style="stop-color:rgb(75.299072%,56.098938%,13.299561%);stop-opacity:1;"/>
<stop offset="0.332031" style="stop-color:rgb(75.299072%,56.098938%,13.499451%);stop-opacity:1;"/>
<stop offset="0.335938" style="stop-color:rgb(75.299072%,56.098938%,13.699341%);stop-opacity:1;"/>
<stop offset="0.339844" style="stop-color:rgb(75.299072%,56.298828%,13.729858%);stop-opacity:1;"/>
<stop offset="0.34375" style="stop-color:rgb(75.299072%,56.498718%,13.760376%);stop-opacity:1;"/>
<stop offset="0.351563" style="stop-color:rgb(75.299072%,56.498718%,13.929749%);stop-opacity:1;"/>
<stop offset="0.355469" style="stop-color:rgb(75.376892%,56.698608%,14.299011%);stop-opacity:1;"/>
<stop offset="0.359375" style="stop-color:rgb(75.456238%,56.898499%,14.498901%);stop-opacity:1;"/>
<stop offset="0.367188" style="stop-color:rgb(75.576782%,56.898499%,14.601135%);stop-opacity:1;"/>
<stop offset="0.371094" style="stop-color:rgb(75.8255%,57.098389%,14.927673%);stop-opacity:1;"/>
<stop offset="0.375" style="stop-color:rgb(75.952148%,57.299805%,15.151978%);stop-opacity:1;"/>
<stop offset="0.378906" style="stop-color:rgb(76.025391%,57.299805%,15.376282%);stop-opacity:1;"/>
<stop offset="0.382813" style="stop-color:rgb(76.098633%,57.299805%,15.600586%);stop-opacity:1;"/>
<stop offset="0.386719" style="stop-color:rgb(76.272583%,57.449341%,15.823364%);stop-opacity:1;"/>
<stop offset="0.390625" style="stop-color:rgb(76.448059%,57.598877%,16.047668%);stop-opacity:1;"/>
<stop offset="0.398438" style="stop-color:rgb(76.473999%,57.598877%,16.073608%);stop-opacity:1;"/>
<stop offset="0.402344" style="stop-color:rgb(76.499939%,57.621765%,16.299438%);stop-opacity:1;"/>
<stop offset="0.40625" style="stop-color:rgb(76.499939%,57.644653%,16.499329%);stop-opacity:1;"/>
<stop offset="0.410156" style="stop-color:rgb(76.545715%,57.821655%,16.699219%);stop-opacity:1;"/>
<stop offset="0.414063" style="stop-color:rgb(76.591492%,57.998657%,16.899109%);stop-opacity:1;"/>
<stop offset="0.417969" style="stop-color:rgb(76.745605%,58.198547%,16.969299%);stop-opacity:1;"/>
<stop offset="0.421875" style="stop-color:rgb(76.899719%,58.399963%,17.03949%);stop-opacity:1;"/>
<stop offset="0.429688" style="stop-color:rgb(76.899719%,58.399963%,17.169189%);stop-opacity:1;"/>
<stop offset="0.4375" style="stop-color:rgb(76.899719%,58.517456%,17.448425%);stop-opacity:1;"/>
<stop offset="0.445313" style="stop-color:rgb(76.899719%,58.717346%,17.741394%);stop-opacity:1;"/>
<stop offset="0.449219" style="stop-color:rgb(76.899719%,58.799744%,18.106079%);stop-opacity:1;"/>
<stop offset="0.453125" style="stop-color:rgb(76.899719%,58.799744%,18.330383%);stop-opacity:1;"/>
<stop offset="0.457031" style="stop-color:rgb(77.099609%,58.999634%,18.553162%);stop-opacity:1;"/>
<stop offset="0.460938" style="stop-color:rgb(77.2995%,59.199524%,18.777466%);stop-opacity:1;"/>
<stop offset="0.46875" style="stop-color:rgb(77.2995%,59.211731%,18.80188%);stop-opacity:1;"/>
<stop offset="0.472656" style="stop-color:rgb(77.2995%,59.411621%,19.049072%);stop-opacity:1;"/>
<stop offset="0.476562" style="stop-color:rgb(77.2995%,59.599304%,19.273376%);stop-opacity:1;"/>
<stop offset="0.484375" style="stop-color:rgb(77.449036%,59.599304%,19.436646%);stop-opacity:1;"/>
<stop offset="0.488281" style="stop-color:rgb(77.598572%,59.683228%,19.799805%);stop-opacity:1;"/>
<stop offset="0.492187" style="stop-color:rgb(77.598572%,59.768677%,19.999695%);stop-opacity:1;"/>
<stop offset="0.5" style="stop-color:rgb(77.598572%,59.883118%,20.108032%);stop-opacity:1;"/>
<stop offset="0.503906" style="stop-color:rgb(77.798462%,59.999084%,20.307922%);stop-opacity:1;"/>
<stop offset="0.507812" style="stop-color:rgb(77.999878%,59.999084%,20.399475%);stop-opacity:1;"/>
<stop offset="0.511719" style="stop-color:rgb(77.999878%,60.198975%,20.599365%);stop-opacity:1;"/>
<stop offset="0.515625" style="stop-color:rgb(77.999878%,60.398865%,20.799255%);stop-opacity:1;"/>
<stop offset="0.519531" style="stop-color:rgb(77.999878%,60.578918%,20.999146%);stop-opacity:1;"/>
<stop offset="0.523438" style="stop-color:rgb(77.999878%,60.760498%,21.199036%);stop-opacity:1;"/>
<stop offset="0.527344" style="stop-color:rgb(78.199768%,60.778809%,21.403503%);stop-opacity:1;"/>
<stop offset="0.53125" style="stop-color:rgb(78.399658%,60.798645%,21.609497%);stop-opacity:1;"/>
<stop offset="0.539062" style="stop-color:rgb(78.399658%,60.798645%,21.803284%);stop-opacity:1;"/>
<stop offset="0.542969" style="stop-color:rgb(78.399658%,60.998535%,22.198486%);stop-opacity:1;"/>
<stop offset="0.546875" style="stop-color:rgb(78.399658%,61.199951%,22.399902%);stop-opacity:1;"/>
<stop offset="0.554688" style="stop-color:rgb(78.399658%,61.199951%,22.549438%);stop-opacity:1;"/>
<stop offset="0.558594" style="stop-color:rgb(78.399658%,61.399841%,22.798157%);stop-opacity:1;"/>
<stop offset="0.5625" style="stop-color:rgb(78.399658%,61.599731%,22.898865%);stop-opacity:1;"/>
<stop offset="0.570312" style="stop-color:rgb(78.523254%,61.723328%,22.998047%);stop-opacity:1;"/>
<stop offset="0.574219" style="stop-color:rgb(78.723145%,61.923218%,23.298645%);stop-opacity:1;"/>
<stop offset="0.578125" style="stop-color:rgb(78.799438%,61.999512%,23.498535%);stop-opacity:1;"/>
<stop offset="0.582031" style="stop-color:rgb(78.999329%,62.17041%,23.87085%);stop-opacity:1;"/>
<stop offset="0.585937" style="stop-color:rgb(79.199219%,62.342834%,24.243164%);stop-opacity:1;"/>
<stop offset="0.59375" style="stop-color:rgb(79.199219%,62.3703%,24.27063%);stop-opacity:1;"/>
<stop offset="0.597656" style="stop-color:rgb(79.399109%,62.413025%,24.519348%);stop-opacity:1;"/>
<stop offset="0.601562" style="stop-color:rgb(79.598999%,62.428284%,24.739075%);stop-opacity:1;"/>
<stop offset="0.609375" style="stop-color:rgb(79.598999%,62.564087%,24.919128%);stop-opacity:1;"/>
<stop offset="0.613281" style="stop-color:rgb(79.598999%,62.767029%,25.299072%);stop-opacity:1;"/>
<stop offset="0.617187" style="stop-color:rgb(79.598999%,62.834167%,25.498962%);stop-opacity:1;"/>
<stop offset="0.621094" style="stop-color:rgb(79.798889%,62.966919%,25.590515%);stop-opacity:1;"/>
<stop offset="0.625" style="stop-color:rgb(79.998779%,63.09967%,25.682068%);stop-opacity:1;"/>
<stop offset="0.628906" style="stop-color:rgb(79.998779%,63.214111%,25.906372%);stop-opacity:1;"/>
<stop offset="0.632812" style="stop-color:rgb(79.998779%,63.330078%,26.130676%);stop-opacity:1;"/>
<stop offset="0.636719" style="stop-color:rgb(79.998779%,63.414001%,26.353455%);stop-opacity:1;"/>
<stop offset="0.640625" style="stop-color:rgb(79.998779%,63.499451%,26.577759%);stop-opacity:1;"/>
<stop offset="0.644531" style="stop-color:rgb(79.998779%,63.499451%,26.802063%);stop-opacity:1;"/>
<stop offset="0.648437" style="stop-color:rgb(79.998779%,63.499451%,27.026367%);stop-opacity:1;"/>
<stop offset="0.652344" style="stop-color:rgb(79.998779%,63.699341%,27.249146%);stop-opacity:1;"/>
<stop offset="0.65625" style="stop-color:rgb(79.998779%,63.899231%,27.47345%);stop-opacity:1;"/>
<stop offset="0.660156" style="stop-color:rgb(80.198669%,63.909912%,27.636719%);stop-opacity:1;"/>
<stop offset="0.664062" style="stop-color:rgb(80.39856%,63.920593%,27.799988%);stop-opacity:1;"/>
<stop offset="0.671875" style="stop-color:rgb(80.39856%,64.109802%,27.833557%);stop-opacity:1;"/>
<stop offset="0.675781" style="stop-color:rgb(80.39856%,64.356995%,28.091431%);stop-opacity:1;"/>
<stop offset="0.679687" style="stop-color:rgb(80.39856%,64.416504%,28.315735%);stop-opacity:1;"/>
<stop offset="0.683594" style="stop-color:rgb(80.59845%,64.556885%,28.457642%);stop-opacity:1;"/>
<stop offset="0.6875" style="stop-color:rgb(80.799866%,64.698792%,28.599548%);stop-opacity:1;"/>
<stop offset="0.691406" style="stop-color:rgb(80.799866%,64.698792%,28.799438%);stop-opacity:1;"/>
<stop offset="0.695312" style="stop-color:rgb(80.799866%,64.698792%,28.999329%);stop-opacity:1;"/>
<stop offset="0.699219" style="stop-color:rgb(80.799866%,64.828491%,29.199219%);stop-opacity:1;"/>
<stop offset="0.703125" style="stop-color:rgb(80.799866%,64.959717%,29.399109%);stop-opacity:1;"/>
<stop offset="0.707031" style="stop-color:rgb(80.953979%,65.028381%,29.598999%);stop-opacity:1;"/>
<stop offset="0.710937" style="stop-color:rgb(81.108093%,65.098572%,29.798889%);stop-opacity:1;"/>
<stop offset="0.714844" style="stop-color:rgb(81.15387%,65.2771%,29.998779%);stop-opacity:1;"/>
<stop offset="0.71875" style="stop-color:rgb(81.199646%,65.455627%,30.198669%);stop-opacity:1;"/>
<stop offset="0.722656" style="stop-color:rgb(81.201172%,65.478516%,30.39856%);stop-opacity:1;"/>
<stop offset="0.726562" style="stop-color:rgb(81.202698%,65.50293%,30.599976%);stop-opacity:1;"/>
<stop offset="0.730469" style="stop-color:rgb(81.401062%,65.701294%,30.799866%);stop-opacity:1;"/>
<stop offset="0.734375" style="stop-color:rgb(81.599426%,65.899658%,30.999756%);stop-opacity:1;"/>
<stop offset="0.738281" style="stop-color:rgb(81.599426%,65.899658%,31.199646%);stop-opacity:1;"/>
<stop offset="0.742187" style="stop-color:rgb(81.599426%,65.899658%,31.399536%);stop-opacity:1;"/>
<stop offset="0.746094" style="stop-color:rgb(81.599426%,66.099548%,31.472778%);stop-opacity:1;"/>
<stop offset="0.75" style="stop-color:rgb(81.599426%,66.299438%,31.547546%);stop-opacity:1;"/>
<stop offset="0.753906" style="stop-color:rgb(81.799316%,66.299438%,31.770325%);stop-opacity:1;"/>
<stop offset="0.757812" style="stop-color:rgb(81.999207%,66.299438%,31.994629%);stop-opacity:1;"/>
<stop offset="0.761719" style="stop-color:rgb(81.999207%,66.499329%,32.188416%);stop-opacity:1;"/>
<stop offset="0.765625" style="stop-color:rgb(81.999207%,66.699219%,32.382202%);stop-opacity:1;"/>
<stop offset="0.769531" style="stop-color:rgb(81.999207%,66.899109%,32.585144%);stop-opacity:1;"/>
<stop offset="0.773437" style="stop-color:rgb(81.999207%,67.098999%,32.789612%);stop-opacity:1;"/>
<stop offset="0.777344" style="stop-color:rgb(82.199097%,67.098999%,33.013916%);stop-opacity:1;"/>
<stop offset="0.78125" style="stop-color:rgb(82.398987%,67.098999%,33.23822%);stop-opacity:1;"/>
<stop offset="0.785156" style="stop-color:rgb(82.398987%,67.298889%,33.460999%);stop-opacity:1;"/>
<stop offset="0.789062" style="stop-color:rgb(82.398987%,67.498779%,33.685303%);stop-opacity:1;"/>
<stop offset="0.792969" style="stop-color:rgb(82.411194%,67.498779%,33.891296%);stop-opacity:1;"/>
<stop offset="0.796875" style="stop-color:rgb(82.424927%,67.498779%,34.098816%);stop-opacity:1;"/>
<stop offset="0.800781" style="stop-color:rgb(82.562256%,67.648315%,34.298706%);stop-opacity:1;"/>
<stop offset="0.804687" style="stop-color:rgb(82.699585%,67.799377%,34.498596%);stop-opacity:1;"/>
<stop offset="0.808594" style="stop-color:rgb(82.699585%,67.799377%,34.698486%);stop-opacity:1;"/>
<stop offset="0.8125" style="stop-color:rgb(82.699585%,67.799377%,34.899902%);stop-opacity:1;"/>
<stop offset="0.820312" style="stop-color:rgb(82.788086%,67.887878%,34.988403%);stop-opacity:1;"/>
<stop offset="0.824219" style="stop-color:rgb(82.987976%,68.087769%,35.301208%);stop-opacity:1;"/>
<stop offset="0.828125" style="stop-color:rgb(83.099365%,68.199158%,35.525513%);stop-opacity:1;"/>
<stop offset="0.832031" style="stop-color:rgb(83.099365%,68.399048%,35.748291%);stop-opacity:1;"/>
<stop offset="0.835937" style="stop-color:rgb(83.099365%,68.598938%,35.972595%);stop-opacity:1;"/>
<stop offset="0.839844" style="stop-color:rgb(83.259583%,68.598938%,36.195374%);stop-opacity:1;"/>
<stop offset="0.84375" style="stop-color:rgb(83.4198%,68.598938%,36.419678%);stop-opacity:1;"/>
<stop offset="0.847656" style="stop-color:rgb(83.459473%,68.798828%,36.643982%);stop-opacity:1;"/>
<stop offset="0.851562" style="stop-color:rgb(83.499146%,68.998718%,36.868286%);stop-opacity:1;"/>
<stop offset="0.855469" style="stop-color:rgb(83.499146%,69.006348%,37.083435%);stop-opacity:1;"/>
<stop offset="0.859375" style="stop-color:rgb(83.499146%,69.015503%,37.298584%);stop-opacity:1;"/>
<stop offset="0.867188" style="stop-color:rgb(83.499146%,69.206238%,37.44812%);stop-opacity:1;"/>
<stop offset="0.871094" style="stop-color:rgb(83.499146%,69.454956%,37.799072%);stop-opacity:1;"/>
<stop offset="0.875" style="stop-color:rgb(83.499146%,69.511414%,37.998962%);stop-opacity:1;"/>
<stop offset="0.878906" style="stop-color:rgb(83.578491%,69.654846%,38.198853%);stop-opacity:1;"/>
<stop offset="0.882812" style="stop-color:rgb(83.659363%,69.799805%,38.398743%);stop-opacity:1;"/>
<stop offset="0.890625" style="stop-color:rgb(83.778381%,69.903564%,38.502502%);stop-opacity:1;"/>
<stop offset="0.894531" style="stop-color:rgb(83.898926%,70.103455%,38.830566%);stop-opacity:1;"/>
<stop offset="0.898438" style="stop-color:rgb(83.898926%,70.199585%,39.054871%);stop-opacity:1;"/>
<stop offset="0.902344" style="stop-color:rgb(84.049988%,70.350647%,39.279175%);stop-opacity:1;"/>
<stop offset="0.90625" style="stop-color:rgb(84.202576%,70.503235%,39.503479%);stop-opacity:1;"/>
<stop offset="0.910156" style="stop-color:rgb(84.249878%,70.550537%,39.750671%);stop-opacity:1;"/>
<stop offset="0.914062" style="stop-color:rgb(84.298706%,70.599365%,39.99939%);stop-opacity:1;"/>
<stop offset="0.917969" style="stop-color:rgb(84.298706%,70.799255%,40.19928%);stop-opacity:1;"/>
<stop offset="0.921875" style="stop-color:rgb(84.298706%,70.999146%,40.39917%);stop-opacity:1;"/>
<stop offset="0.925781" style="stop-color:rgb(84.498596%,70.999146%,40.59906%);stop-opacity:1;"/>
<stop offset="0.929688" style="stop-color:rgb(84.698486%,70.999146%,40.79895%);stop-opacity:1;"/>
<stop offset="0.933594" style="stop-color:rgb(84.698486%,71.199036%,40.99884%);stop-opacity:1;"/>
<stop offset="0.9375" style="stop-color:rgb(84.698486%,71.398926%,41.19873%);stop-opacity:1;"/>
<stop offset="0.941406" style="stop-color:rgb(84.698486%,71.398926%,41.398621%);stop-opacity:1;"/>
<stop offset="0.945313" style="stop-color:rgb(84.698486%,71.398926%,41.598511%);stop-opacity:1;"/>
<stop offset="0.949219" style="stop-color:rgb(84.898376%,71.49353%,41.798401%);stop-opacity:1;"/>
<stop offset="0.953125" style="stop-color:rgb(85.099792%,71.589661%,41.999817%);stop-opacity:1;"/>
<stop offset="0.957031" style="stop-color:rgb(85.099792%,71.69342%,42.199707%);stop-opacity:1;"/>
<stop offset="0.960938" style="stop-color:rgb(85.099792%,71.798706%,42.399597%);stop-opacity:1;"/>
<stop offset="0.964844" style="stop-color:rgb(85.099792%,71.998596%,42.692566%);stop-opacity:1;"/>
<stop offset="0.96875" style="stop-color:rgb(85.099792%,72.198486%,42.985535%);stop-opacity:1;"/>
<stop offset="0.972656" style="stop-color:rgb(85.299683%,72.348022%,43.208313%);stop-opacity:1;"/>
<stop offset="0.976562" style="stop-color:rgb(85.499573%,72.499084%,43.432617%);stop-opacity:1;"/>
<stop offset="0.980469" style="stop-color:rgb(85.499573%,72.499084%,43.666077%);stop-opacity:1;"/>
<stop offset="0.984375" style="stop-color:rgb(85.499573%,72.499084%,43.899536%);stop-opacity:1;"/>
<stop offset="0.988281" style="stop-color:rgb(85.499573%,72.698975%,44.099426%);stop-opacity:1;"/>
<stop offset="0.992187" style="stop-color:rgb(85.499573%,72.898865%,44.299316%);stop-opacity:1;"/>
<stop offset="1" style="stop-color:rgb(85.499573%,72.898865%,44.299316%);stop-opacity:1;"/>
</linearGradient>
<clipPath id="clip20">
  <path d="M 108 66 L 343 66 L 343 333 L 108 333 Z M 108 66 "/>
</clipPath>
<clipPath id="clip21">
  <path d="M 113.640625 -50.863281 L 484.371094 94.613281 L 338.894531 465.34375 L -31.835938 319.867188 Z M 113.640625 -50.863281 "/>
</clipPath>
<clipPath id="clip22">
  <path d="M 113.640625 -50.863281 L 484.371094 94.613281 L 338.894531 465.34375 L -31.835938 319.867188 Z M 113.640625 -50.863281 "/>
</clipPath>
<clipPath id="clip23">
  <path d="M 254 263 L 326 263 L 326 333 L 254 333 Z M 254 263 "/>
</clipPath>
<clipPath id="clip24">
  <path d="M 113.640625 -50.863281 L 484.371094 94.613281 L 338.894531 465.34375 L -31.835938 319.867188 Z M 113.640625 -50.863281 "/>
</clipPath>
<clipPath id="clip25">
  <path d="M 113.640625 -50.863281 L 484.371094 94.613281 L 338.894531 465.34375 L -31.835938 319.867188 Z M 113.640625 -50.863281 "/>
</clipPath>
<clipPath id="clip26">
  <path d="M 161 269 L 213 269 L 213 305 L 161 305 Z M 161 269 "/>
</clipPath>
<clipPath id="clip27">
  <path d="M 113.640625 -50.863281 L 484.371094 94.613281 L 338.894531 465.34375 L -31.835938 319.867188 Z M 113.640625 -50.863281 "/>
</clipPath>
<clipPath id="clip28">
  <path d="M 113.640625 -50.863281 L 484.371094 94.613281 L 338.894531 465.34375 L -31.835938 319.867188 Z M 113.640625 -50.863281 "/>
</clipPath>
<clipPath id="clip29">
  <path d="M 113 203 L 152 203 L 152 253 L 113 253 Z M 113 203 "/>
</clipPath>
<clipPath id="clip30">
  <path d="M 113.640625 -50.863281 L 484.371094 94.613281 L 338.894531 465.34375 L -31.835938 319.867188 Z M 113.640625 -50.863281 "/>
</clipPath>
<clipPath id="clip31">
  <path d="M 113.640625 -50.863281 L 484.371094 94.613281 L 338.894531 465.34375 L -31.835938 319.867188 Z M 113.640625 -50.863281 "/>
</clipPath>
<clipPath id="clip32">
  <path d="M 108 146 L 157 146 L 157 209 L 108 209 Z M 108 146 "/>
</clipPath>
<clipPath id="clip33">
  <path d="M 113.640625 -50.863281 L 484.371094 94.613281 L 338.894531 465.34375 L -31.835938 319.867188 Z M 113.640625 -50.863281 "/>
</clipPath>
<clipPath id="clip34">
  <path d="M 113.640625 -50.863281 L 484.371094 94.613281 L 338.894531 465.34375 L -31.835938 319.867188 Z M 113.640625 -50.863281 "/>
</clipPath>
<clipPath id="clip35">
  <path d="M 112 66 L 347 66 L 347 323 L 112 323 Z M 112 66 "/>
</clipPath>
<clipPath id="clip36">
  <path d="M 113.640625 -50.863281 L 484.371094 94.613281 L 338.894531 465.34375 L -31.835938 319.867188 Z M 113.640625 -50.863281 "/>
</clipPath>
<clipPath id="clip37">
  <path d="M 113.640625 -50.863281 L 484.371094 94.613281 L 338.894531 465.34375 L -31.835938 319.867188 Z M 113.640625 -50.863281 "/>
</clipPath>
</defs>
<g id="surface1">
<g clip-path="url(#clip1)" clip-rule="nonzero">
<g clip-path="url(#clip2)" clip-rule="nonzero">
<g clip-path="url(#clip3)" clip-rule="nonzero">
<path style=" stroke:none;fill-rule:nonzero;fill:rgb(100%,100%,100%);fill-opacity:1;" d="M 503.59375 442.628906 L 504.164062 435.957031 L 499.367188 438.28125 L 494.210938 434.148438 L 495.542969 441.164062 L 491.792969 445.285156 L 497.410156 447.292969 L 500.246094 453.976562 L 502.382812 448.195312 L 507.890625 448.207031 Z M 503.59375 442.628906 "/>
</g>
</g>
</g>
<g clip-path="url(#clip4)" clip-rule="nonzero">
<g clip-path="url(#clip5)" clip-rule="nonzero">
<g clip-path="url(#clip6)" clip-rule="nonzero">
<path style=" stroke:none;fill-rule:nonzero;fill:rgb(100%,100%,100%);fill-opacity:1;" d="M 529.933594 460.113281 L 525.136719 462.433594 L 519.980469 458.300781 L 521.3125 465.320312 L 517.5625 469.4375 L 523.179688 471.449219 L 526.015625 478.128906 L 528.152344 472.351562 L 533.660156 472.359375 L 529.363281 466.785156 Z M 529.933594 460.113281 "/>
</g>
</g>
</g>
<g clip-path="url(#clip7)" clip-rule="nonzero">
<g clip-path="url(#clip8)" clip-rule="nonzero">
<g clip-path="url(#clip9)" clip-rule="nonzero">
<path style=" stroke:none;fill-rule:nonzero;fill:rgb(100%,100%,100%);fill-opacity:1;" d="M 632.519531 508.324219 C 626.085938 491.683594 606.445312 482.246094 600.742188 479.808594 C 599.746094 479.382812 599.171875 479.167969 599.171875 479.167969 C 503.097656 420.210938 478.78125 298.757812 478.78125 298.757812 C 476.78125 296.722656 474.738281 295.367188 472.726562 294.503906 C 463.273438 290.460938 454.394531 297.324219 454.394531 297.324219 C 438.035156 307.097656 410.804688 299.445312 388.542969 289.921875 C 368.242188 281.234375 352.074219 270.992188 352.074219 270.992188 C 351.894531 270.902344 351.714844 270.824219 351.539062 270.75 C 341.636719 266.511719 339.378906 280.75 339.378906 280.75 C 327.269531 299.761719 298.792969 338.449219 298.792969 338.449219 C 289.164062 345.019531 282.363281 355.613281 282.363281 355.613281 C 280.175781 358.621094 278.015625 363.890625 276.34375 368.585938 L 276.203125 368.515625 C 275.257812 370.429688 253.371094 415.664062 282.300781 434.746094 L 283.152344 435.214844 C 347.667969 464.179688 348.171875 464.40625 348.21875 464.425781 C 348.214844 464.398438 348.339844 464.476562 348.398438 464.503906 C 355.089844 467.367188 361.59375 468.257812 367.882812 469.125 C 370.097656 469.429688 372.335938 469.734375 374.621094 470.136719 C 393.332031 473.433594 408.121094 479.21875 419.808594 487.820312 L 420.699219 488.363281 C 420.984375 488.503906 449.285156 502.566406 456.828125 506.558594 C 460.039062 508.171875 535.589844 545.925781 564.566406 548.085938 C 567.980469 548.582031 598.605469 552.53125 617.972656 538.230469 C 624.21875 533.617188 628.617188 527.660156 631.128906 520.460938 C 633.128906 516.558594 633.882812 511.878906 632.515625 508.324219 Z M 314.785156 384.476562 L 311.261719 378.484375 L 304.496094 380.074219 L 308.914062 372.464844 L 307.183594 365 L 313.4375 366.285156 L 319.136719 360.082031 L 318.582031 368.484375 L 323.832031 372.121094 L 317.238281 376.027344 L 314.789062 384.476562 Z M 617.804688 517.246094 C 616.421875 517.992188 610.289062 518.90625 608.75 519.113281 C 605.5 519.554688 602.03125 519.152344 598.757812 519.113281 C 594.335938 519.054688 590.082031 518.253906 585.773438 517.335938 C 582.863281 516.71875 579.957031 516.105469 577.085938 515.339844 C 573.957031 514.503906 570.355469 513.703125 567.453125 512.242188 C 553.378906 505.152344 538.695312 496.984375 524.484375 489.085938 C 508.539062 480.214844 492.042969 471.042969 475.960938 463.125 C 467.78125 459.097656 459.085938 455.105469 450.113281 451.269531 C 426.945312 441.355469 403.667969 433.160156 383.953125 426.453125 L 383.742188 426.378906 L 383.527344 426.3125 C 383.429688 426.285156 379.578125 425.121094 373.472656 423.089844 C 330.5 359.789062 355.371094 290.746094 355.628906 290.050781 C 355.976562 289.125 356.054688 288.171875 355.945312 287.257812 C 362.867188 291.121094 372.679688 296.261719 383.785156 301.015625 C 417.789062 315.5625 443.625 317.808594 460.574219 307.683594 L 461.039062 307.472656 L 461.675781 306.941406 C 462.210938 306.59375 465.488281 304.589844 467.914062 305.578125 C 469.160156 310.824219 471.632812 320.265625 475.722656 332.335938 C 470.890625 334.511719 453.691406 341.1875 433.671875 336.089844 C 432.394531 332.039062 429.488281 328.523438 425.28125 326.722656 C 417.632812 323.453125 408.75 327.011719 405.476562 334.660156 C 402.203125 342.308594 405.765625 351.195312 413.414062 354.46875 C 420.46875 357.484375 428.519531 354.640625 432.304688 348.191406 C 454.214844 353.292969 472.742188 346.8125 479.808594 343.738281 C 482.648438 351.269531 486.039062 359.480469 490.046875 368.125 C 483.054688 372.195312 464.949219 380.902344 443.3125 377.867188 C 442.421875 373.078125 439.234375 368.796875 434.421875 366.738281 C 426.773438 363.46875 417.886719 367.027344 414.617188 374.675781 C 411.34375 382.324219 414.90625 391.210938 422.554688 394.484375 C 429.0625 397.265625 436.429688 395.070312 440.511719 389.65625 C 465.523438 393.539062 486.496094 383.988281 495.308594 379.015625 C 494.992188 379.191406 506.902344 399.914062 508.003906 401.738281 C 512.808594 409.699219 517.996094 417.421875 523.523438 424.902344 C 529.421875 432.886719 535.691406 440.609375 542.40625 447.925781 C 549.382812 455.527344 556.878906 462.636719 564.878906 469.15625 C 573.15625 475.902344 581.933594 481.988281 590.785156 487.953125 C 592.167969 488.882812 593.34375 489.898438 594.902344 490.460938 C 595 490.496094 595.378906 490.644531 595.972656 490.898438 C 599.074219 492.226562 602.101562 493.816406 604.96875 495.59375 C 609.5625 498.445312 613.457031 501.789062 617.039062 505.820312 C 618.054688 506.960938 619.175781 508.109375 619.84375 509.503906 C 620.753906 511.382812 620.875 513.148438 619.882812 514.976562 C 619.417969 515.90625 618.757812 516.765625 617.820312 517.261719 Z M 617.804688 517.246094 "/>
</g>
</g>
</g>
<g clip-path="url(#clip10)" clip-rule="nonzero">
<g clip-path="url(#clip11)" clip-rule="nonzero">
<g clip-path="url(#clip12)" clip-rule="nonzero">
<g clip-path="url(#clip13)" clip-rule="nonzero">
<g clip-path="url(#clip14)" clip-rule="nonzero">
<g clip-path="url(#clip15)" clip-rule="nonzero">
<g clip-path="url(#clip16)" clip-rule="nonzero">
<g clip-path="url(#clip17)" clip-rule="nonzero">
<g clip-path="url(#clip18)" clip-rule="nonzero">
<g clip-path="url(#clip19)" clip-rule="nonzero">
<path style=" stroke:none;fill-rule:nonzero;fill:url(#linear0);" d="M 128.871094 60.21875 L 171.617188 74.71875 L 145.714844 151.078125 L 102.96875 136.578125 Z M 128.871094 60.21875 "/>
</g>
</g>
</g>
</g>
</g>
</g>
</g>
</g>
</g>
</g>
<g clip-path="url(#clip20)" clip-rule="nonzero">
<g clip-path="url(#clip21)" clip-rule="nonzero">
<g clip-path="url(#clip22)" clip-rule="nonzero">
<path style=" stroke:none;fill-rule:nonzero;fill:rgb(100%,36.079407%,36.079407%);fill-opacity:1;" d="M 342.417969 279.007812 C 341.28125 278.570312 340.140625 278.09375 339.015625 277.523438 C 320.71875 268.148438 281.875 209.550781 272.800781 201.554688 C 259.300781 189.644531 198.710938 155.699219 162.96875 119.789062 C 143.519531 100.253906 136.710938 66.675781 136.710938 66.675781 C 136.710938 66.675781 132.796875 77.511719 132.628906 77.074219 C 130.101562 84.496094 128.496094 91.640625 128.105469 99.878906 C 127.644531 109.742188 126.683594 119.988281 127.941406 129.800781 C 128.574219 134.714844 129.285156 139.601562 129.585938 144.53125 C 136.761719 156.855469 149.753906 176.210938 156.964844 183.980469 C 155.875 183.320312 112.46875 146.589844 112.46875 146.589844 C 112.46875 146.589844 108.648438 157.230469 108.390625 156.980469 C 108.433594 157.097656 108.476562 157.214844 108.511719 157.339844 C 110.742188 163.898438 112.183594 186.308594 130.878906 210.589844 C 142.609375 220.28125 155.742188 228.65625 169.644531 235.5625 C 169.144531 235.433594 117.609375 203.066406 117.609375 203.066406 L 113.53125 213.460938 L 113.511719 213.484375 L 113.382812 213.683594 C 114.988281 219.648438 131.796875 251.0625 132.71875 252.332031 C 137.117188 255.273438 141.394531 257.707031 144.691406 259.464844 C 161.886719 268.59375 190.074219 272.191406 193.703125 273.765625 C 187.109375 274.359375 166.03125 268.976562 166.03125 268.976562 L 161.953125 279.367188 C 163.40625 280.691406 164.636719 281.890625 165.40625 282.464844 C 172.371094 287.589844 179.910156 292.046875 187.558594 296.066406 C 193.324219 299.09375 199.21875 301.960938 205.257812 304.421875 C 206.511719 304.378906 207.757812 304.335938 208.988281 304.222656 C 214.636719 303.746094 220.332031 303 225.867188 301.722656 C 236.832031 299.183594 247.019531 295.101562 257.324219 290.703125 C 274.890625 283.226562 294.929688 284.429688 305.441406 302.671875 C 311.378906 312.980469 311.152344 323.273438 307.382812 332.722656 C 317.339844 326.941406 323.261719 320.050781 328.855469 310.027344 C 334.304688 300.246094 339.105469 289.753906 342.417969 279.007812 "/>
</g>
</g>
</g>
<g clip-path="url(#clip23)" clip-rule="nonzero">
<g clip-path="url(#clip24)" clip-rule="nonzero">
<g clip-path="url(#clip25)" clip-rule="nonzero">
<path style=" stroke:none;fill-rule:nonzero;fill:rgb(100%,36.079407%,36.079407%);fill-opacity:1;" d="M 265.851562 263.902344 L 325.671875 287.378906 L 308.035156 332.324219 C 307.808594 332.457031 307.605469 332.589844 307.382812 332.722656 C 311.152344 323.273438 311.378906 312.980469 305.441406 302.671875 C 294.933594 284.429688 274.890625 283.226562 257.324219 290.703125 C 256.527344 291.042969 255.734375 291.375 254.9375 291.71875 L 265.851562 263.902344 "/>
</g>
</g>
</g>
<g clip-path="url(#clip26)" clip-rule="nonzero">
<g clip-path="url(#clip27)" clip-rule="nonzero">
<g clip-path="url(#clip28)" clip-rule="nonzero">
<path style=" stroke:none;fill-rule:nonzero;fill:rgb(100%,36.079407%,36.079407%);fill-opacity:1;" d="M 212.324219 287.261719 L 205.597656 304.402344 C 205.484375 304.410156 205.378906 304.417969 205.257812 304.421875 C 199.21875 301.960938 193.324219 299.09375 187.558594 296.066406 C 179.910156 292.046875 172.371094 287.589844 165.40625 282.464844 C 164.636719 281.890625 163.40625 280.691406 161.953125 279.367188 L 165.992188 269.078125 L 212.324219 287.261719 "/>
</g>
</g>
</g>
<g clip-path="url(#clip29)" clip-rule="nonzero">
<g clip-path="url(#clip30)" clip-rule="nonzero">
<g clip-path="url(#clip31)" clip-rule="nonzero">
<path style=" stroke:none;fill-rule:nonzero;fill:rgb(100%,36.079407%,36.079407%);fill-opacity:1;" d="M 113.511719 213.484375 L 113.53125 213.460938 L 117.609375 203.066406 C 117.609375 203.066406 121.703125 205.640625 127.589844 209.328125 L 126.167969 212.957031 L 151.90625 223.054688 L 143.640625 244.109375 L 136.945312 241.484375 L 132.695312 252.3125 C 131.703125 250.894531 114.984375 219.632812 113.382812 213.683594 L 113.511719 213.484375 "/>
</g>
</g>
</g>
<g clip-path="url(#clip32)" clip-rule="nonzero">
<g clip-path="url(#clip33)" clip-rule="nonzero">
<g clip-path="url(#clip34)" clip-rule="nonzero">
<path style=" stroke:none;fill-rule:nonzero;fill:rgb(100%,36.079407%,36.079407%);fill-opacity:1;" d="M 112.46875 146.589844 C 112.46875 146.589844 152.960938 180.847656 156.703125 183.777344 C 156.792969 183.882812 156.878906 183.996094 156.964844 184.109375 L 154.261719 191 L 137.382812 184.375 L 134.960938 200.1875 L 131.605469 208.738281 L 128.640625 207.578125 L 128.410156 207.234375 C 112.0625 184.277344 110.636719 163.597656 108.511719 157.339844 C 108.476562 157.214844 108.433594 157.097656 108.390625 156.980469 C 108.648438 157.230469 112.46875 146.589844 112.46875 146.589844 "/>
</g>
</g>
</g>
<g clip-path="url(#clip35)" clip-rule="nonzero">
<g clip-path="url(#clip36)" clip-rule="nonzero">
<g clip-path="url(#clip37)" clip-rule="nonzero">
<path style=" stroke:none;fill-rule:nonzero;fill:rgb(100%,100%,100%);fill-opacity:1;" d="M 346.5 268.605469 C 345.363281 268.171875 344.222656 267.691406 343.097656 267.121094 C 324.796875 257.757812 285.957031 199.148438 276.882812 191.152344 C 255.898438 172.644531 162.339844 134.664062 136.710938 66.675781 C 134.179688 74.101562 132.574219 81.238281 132.183594 89.488281 C 131.726562 99.339844 130.761719 109.585938 132.023438 119.398438 C 132.65625 124.3125 133.367188 129.203125 133.667969 134.128906 C 140.839844 146.460938 153.832031 165.816406 161.042969 173.585938 C 159.820312 172.835938 114.714844 148.757812 112.46875 146.589844 C 112.515625 146.695312 112.554688 146.824219 112.59375 146.9375 C 114.820312 153.507812 116.265625 175.90625 134.960938 200.1875 C 146.691406 209.882812 159.824219 218.253906 173.726562 225.160156 C 173.222656 225.03125 146.558594 214.65625 130.140625 208.15625 C 129.9375 208.117188 118.167969 203.367188 117.609375 203.066406 L 117.589844 203.089844 L 117.460938 203.292969 C 119.066406 209.253906 135.875 240.671875 136.796875 241.9375 C 141.199219 244.875 145.472656 247.316406 148.773438 249.0625 C 165.964844 258.195312 194.15625 261.789062 197.785156 263.363281 C 190.597656 264.015625 174.824219 267.847656 166.03125 268.976562 C 167.484375 270.300781 168.71875 271.488281 169.488281 272.0625 C 176.453125 277.1875 183.988281 281.644531 191.640625 285.664062 C 197.402344 288.699219 203.296875 291.566406 209.339844 294.019531 C 210.589844 293.984375 211.839844 293.933594 213.066406 293.832031 C 218.71875 293.34375 224.414062 292.597656 229.949219 291.320312 C 240.914062 288.78125 251.101562 284.699219 261.40625 280.300781 C 278.96875 272.824219 299.011719 274.03125 309.519531 292.277344 C 315.460938 302.578125 315.234375 312.875 311.464844 322.320312 C 321.417969 316.546875 327.34375 309.648438 332.9375 299.628906 C 338.386719 289.84375 343.183594 279.359375 346.5 268.605469 "/>
</g>
</g>
</g>
</g>
</svg>
